<svg xmlns="http://www.w3.org/2000/svg" viewBox="0 0 32 32"><title>file_type_ng_smart_component_js</title><defs><linearGradient id="a"><stop offset="0" stop-color="#93000e"/><stop offset="1" stop-color="#4a0007"/></linearGradient></defs><path fill="url(#a)" d="m222.08 39.192-8.019 125.92L137.39-.008zm-53.105 162.82-57.933 33.056-57.934-33.056 11.783-28.556h92.301zm-57.933-139.34 30.357 73.803H80.684zm-103.1 102.44L.005 39.192 84.695 0z" transform="translate(2.76 1.986)scale(.11923)"/><path fill="#4a0007" fill-opacity=".3" d="m29.24 6.659-.957 15.013-9.141-19.687zm-6.332 19.413L16 30.013l-6.907-3.941 1.405-3.405h11.005zM16 9.458l3.62 8.8h-7.24zM3.708 21.672 2.76 6.66 12.86 1.986z"/><path d="m15.271 27.926 1.664-1.01c.322.57.614 1.053 1.316 1.053.673 0 1.1-.263 1.1-1.287V19.72H21.4v6.991a2.78 2.78 0 0 1-3.056 3.089 3.18 3.18 0 0 1-3.072-1.872M22.513 27.706l1.667-.965a2.23 2.23 0 0 0 2.02 1.243c.848 0 1.39-.424 1.39-1.009 0-.7-.556-.951-1.492-1.36l-.512-.22c-1.477-.629-2.457-1.419-2.457-3.086a2.737 2.737 0 0 1 2.755-2.719q.123 0 .245.013a3.02 3.02 0 0 1 2.908 1.638l-1.594 1.024a1.39 1.39 0 0 0-1.316-.878.89.89 0 0 0-.976.8v.081c0 .614.38.863 1.258 1.243l.512.219c1.74.747 2.72 1.507 2.72 3.219 0 1.843-1.448 2.852-3.393 2.852a3.93 3.93 0 0 1-3.73-2.092" style="fill:#f7df1e"/></svg>