<svg xmlns="http://www.w3.org/2000/svg" width="32" height="32" viewBox="0 0 8.467 8.467"><path fill="#fff" fill-rule="evenodd" stroke="#fff" stroke-linecap="round" stroke-linejoin="bevel" stroke-width=".28" d="M3.865 3.873h3.027V6.9H3.865z"/><path fill="#108938" d="M7.68.53H.786A.257.257 0 0 0 .53.785V7.68a.257.257 0 0 0 .257.258H7.68a.257.257 0 0 0 .258-.258V.786A.257.257 0 0 0 7.68.53m-.669 5.345-.378.652-.954-.675.11 1.16h-.792l.106-1.16-.95.675-.383-.652 1.064-.484-1.064-.484.383-.653.95.675-.106-1.159h.791l-.11 1.16.955-.676.378.653-1.06.484z" class="a"/></svg>