<svg xmlns="http://www.w3.org/2000/svg" viewBox="0 0 32 32"><title>file_type_ng_smart_component_ts</title><defs><linearGradient id="b"><stop offset="0" stop-color="#93000e"/><stop offset="1" stop-color="#4a0007"/></linearGradient><linearGradient id="c"><stop offset="0" stop-color="#93000e"/><stop offset="1" stop-color="#93000e" stop-opacity="0"/></linearGradient><clipPath id="a"><path fill="#fff" d="M0 0h223v236H0z"/></clipPath></defs><g clip-path="url(#a)" transform="translate(2.76 1.986)scale(.11923)"><path fill="url(#b)" d="m222.08 39.192-8.019 125.92L137.39-.008zm-53.105 162.82-57.933 33.056-57.934-33.056 11.783-28.556h92.301zm-57.933-139.34 30.357 73.803H80.684zm-103.1 102.44L.005 39.192 84.695 0z"/><path fill="url(#c)" d="m222.08 39.192-8.019 125.92L137.39-.008zm-53.105 162.82-57.933 33.056-57.934-33.056 11.783-28.556h92.301zm-57.933-139.34 30.357 73.803H80.684zm-103.1 102.44L.005 39.192 84.695 0z"/></g><path d="M27.039 19.647a2.8 2.8 0 0 1 1.414.815 3.7 3.7 0 0 1 .542.725c.007.029-.976.689-1.572 1.059-.022.014-.108-.079-.2-.222a1.28 1.28 0 0 0-1.062-.639c-.685-.047-1.127.312-1.123.912a.83.83 0 0 0 .1.423c.151.312.431.5 1.31.879 1.618.7 2.311 1.156 2.742 1.809a3.28 3.28 0 0 1 .262 2.756 3.03 3.03 0 0 1-2.5 1.791 7 7 0 0 1-1.723-.018 4.15 4.15 0 0 1-2.3-1.2 4 4 0 0 1-.589-.872 2 2 0 0 1 .208-.133l.84-.484.65-.377.136.2a3 3 0 0 0 .858.822 2.1 2.1 0 0 0 2.2-.111.98.98 0 0 0 .126-1.252c-.176-.251-.535-.463-1.554-.9a5.6 5.6 0 0 1-2.128-1.31 3 3 0 0 1-.621-1.13 4.5 4.5 0 0 1-.039-1.443 2.76 2.76 0 0 1 2.308-2.147 5.7 5.7 0 0 1 1.715.047M21.731 20.591l.007.926H18.8v8.362h-2.086v-8.362h-2.942v-.908a9 9 0 0 1 .025-.933c.011-.014 1.8-.022 3.973-.018l3.951.011Z" style="fill:#007acc"/></svg>