<svg xmlns="http://www.w3.org/2000/svg" viewBox="0 0 32 32"><path fill="#54a706" d="M6.785 2.035c.757.291 1.455.611 2.134.97.3.165.3.165.601.34.214.126.427.242.65.368.233.126.456.262.689.388 2.037 1.164 3.977 2.328 6.014 3.492 2.037 1.261 4.171 2.425 6.305 3.686.446.262.892.514 1.358.776.582.35.582.35 1.164.611.728.369 1.164.611 1.455 1.358.262 1.455.407 3.59-.456 4.85-.786.737-1.746 1.164-2.716 1.552-1.164.534-2.134 1.164-3.2 1.746-.544.32-1.068.621-1.65.931-1.649.941-3.298 1.94-4.947 2.91-1.067.65-2.23 1.261-3.298 1.94-.3.175-.3.175-.611.36-.514.3-1.067.6-1.552.901l-.436.262C7.89 29.7 7.89 29.7 7.22 30c-.95-.32-1.164-.97-1.649-1.843-.083-.145-.164-.3-.252-.456a26 26 0 0 1-.61-1.164c.872-.96 1.745-1.552 2.91-2.134.368-.203.736-.397 1.066-.601.291-.155.291-.155.592-.32 1.746-.97 3.492-2.037 5.238-3.104.708-.417 1.455-.825 2.134-1.261.611-.35 1.26-.708 1.843-1.067.3-.175.592-.35.892-.514.417-.243.834-.485 1.261-.728.243-.136.476-.281.728-.417.562-.3.562-.3.766-.805-.165-.061-.33-.126-.495-.184a15 15 0 0 1-1.843-.932l-.698-.407c-.252-.146-.495-.291-.747-.436-.262-.156-.524-.301-.786-.456L11.17 9.388C9.035 8.127 6.804 6.866 4.67 5.605c.34-.912.776-1.746 1.261-2.522.146-.243.291-.485.437-.738.107-.184.223-.368.33-.552z"/><script/></svg>