<svg xmlns="http://www.w3.org/2000/svg" viewBox="0 0 32 32"><title>file_type_ng_component_css</title><defs><linearGradient id="b"><stop offset="0" stop-color="#de3641"/><stop offset="1" stop-color="#b13138"/></linearGradient><linearGradient id="c"><stop offset="0" stop-color="#de3641"/><stop offset="1" stop-color="#de3641" stop-opacity="0"/></linearGradient><clipPath id="a"><path fill="#fff" d="M0 0h223v236H0z"/></clipPath></defs><g clip-path="url(#a)" transform="translate(2.76 1.986)scale(.11923)"><path fill="url(#b)" d="m222.08 39.192-8.019 125.92L137.39-.008zm-53.105 162.82-57.933 33.056-57.934-33.056 11.783-28.556h92.301zm-57.933-139.34 30.357 73.803H80.684zm-103.1 102.44L.005 39.192 84.695 0z"/><path fill="url(#c)" d="m222.08 39.192-8.019 125.92L137.39-.008zm-53.105 162.82-57.933 33.056-57.934-33.056 11.783-28.556h92.301zm-57.933-139.34 30.357 73.803H80.684zm-103.1 102.44L.005 39.192 84.695 0z"/></g><path d="m18.59 28.34-1.12-12.6h12.35l-1.13 12.6-5.05 1.4z" style="fill:#1572b6"/><path d="m23.64 28.67 4.09-1.14.96-10.76h-5.05z" style="fill:#33a9dc"/><path d="M23.64 21.33h2.05l.14-1.58h-2.19V18.2h3.88l-.04.42-.38 4.26h-3.46z" style="fill:#fff"/><path d="m23.65 25.35-1.72-.47-.11-1.23h-1.56l.22 2.43 3.16.88.01-.01z" style="fill:#ebebeb"/><path d="m25.56 22.81-.19 2.07-1.72.47v1.61l3.17-.88.02-.26.27-3.01z" style="fill:#fff"/><path d="M23.65 18.2v1.55h-3.73l-.03-.35-.08-.78-.03-.42zM23.64 21.33v1.55h-1.7l-.03-.35-.07-.78-.03-.42z" style="fill:#ebebeb"/></svg>