<svg xmlns="http://www.w3.org/2000/svg" viewBox="0 0 32 32"><title>file_type_ng_pipe_dart</title><defs><linearGradient id="b"><stop offset="0" stop-color="#dc7200"/><stop offset="1" stop-color="#a55600"/></linearGradient><clipPath id="a"><path fill="#fff" d="M0 0h223v236H0z"/></clipPath></defs><g clip-path="url(#a)" transform="translate(2.76 1.986)scale(.11923)"><path fill="url(#b)" d="m222.08 39.192-8.019 125.92L137.39-.008zm-53.105 162.82-57.933 33.056-57.934-33.056 11.783-28.556h92.301zm-57.933-139.34 30.357 73.803H80.684zm-103.1 102.44L.005 39.192 84.695 0z"/></g><path d="m29.035 22.675-1.744-1.7-.009-.009a3.07 3.07 0 0 0-1.585-.744l-.443-1.061a.3.3 0 0 0-.059-.088l-1.421-1.415a.86.86 0 0 0-.562-.247h-.034a.83.83 0 0 0-.561.218l-3.6 2.071a.275.275 0 0 0-.223.23l-2.062 3.554a.83.83 0 0 0 .028 1.152l1.77 1.763a.3.3 0 0 0 .094.061l.749.294a3.05 3.05 0 0 0 .717 1.42l.009.009 1.709 1.74a.28.28 0 0 0 .2.083H26.9a.276.276 0 0 0 .271-.223l.286-1.491 1.438-.273a.274.274 0 0 0 .224-.27v-4.873a.27.27 0 0 0-.084-.201" style="fill:#fff"/><path d="m19.094 19.968-2.136 3.68a.57.57 0 0 0-.163.394.56.56 0 0 0 .166.4l1.77 1.764 6.921 2.713 1.565-.866-.043-.043h-.011l-4.343-4.33Z" style="fill:#215896"/><path d="M23.178 17.69a.56.56 0 0 0-.394.162l-3.7 2.129 3.687 3.674L27.2 28.08l.845-1.517L25 19.274l-1.421-1.415a.56.56 0 0 0-.4-.166Z" style="fill:#66c3fa"/><path d="m19.069 19.974 3.771 3.762 4.341 4.331 1.653-.314V22.88l-1.744-1.7a2.8 2.8 0 0 0-1.56-.693v-.019Z" style="fill:#235997"/><path d="m19.1 19.994 3.773 3.76 4.342 4.328-.315 1.651h-4.892l-1.708-1.74a2.8 2.8 0 0 1-.694-1.555h-.019Z" style="fill:#58b6f0"/><path d="m29.035 22.675-1.744-1.7-.009-.009a3.07 3.07 0 0 0-1.585-.744l-.443-1.061a.3.3 0 0 0-.059-.088l-1.421-1.415a.86.86 0 0 0-.562-.247h-.034a.83.83 0 0 0-.561.218l-3.6 2.071a.275.275 0 0 0-.223.23l-2.062 3.554a.83.83 0 0 0 .028 1.152l1.77 1.763a.3.3 0 0 0 .094.061l.749.294a3.05 3.05 0 0 0 .717 1.42l.009.009 1.709 1.74a.28.28 0 0 0 .2.083H26.9a.276.276 0 0 0 .271-.223l.286-1.491 1.438-.273a.274.274 0 0 0 .224-.27v-4.873a.27.27 0 0 0-.084-.201" style="fill:#fff"/><path d="m19.094 19.968-2.136 3.68a.57.57 0 0 0-.163.394.56.56 0 0 0 .166.4l1.77 1.764 6.921 2.713 1.565-.866-.043-.043h-.011l-4.343-4.33Z" style="fill:#215896"/><path d="M23.178 17.69a.56.56 0 0 0-.394.162l-3.7 2.129 3.687 3.674L27.2 28.08l.845-1.517L25 19.274l-1.421-1.415a.56.56 0 0 0-.4-.166Z" style="fill:#66c3fa"/><path d="m19.069 19.974 3.771 3.762 4.341 4.331 1.653-.314V22.88l-1.744-1.7a2.8 2.8 0 0 0-1.56-.693v-.019Z" style="fill:#235997"/><path d="m19.1 19.994 3.773 3.76 4.342 4.328-.315 1.651h-4.892l-1.708-1.74a2.8 2.8 0 0 1-.694-1.555h-.019Z" style="fill:#58b6f0"/></svg>