<svg xmlns="http://www.w3.org/2000/svg" viewBox="0 0 32 32"><path d="m2 2.273 23.979 25.4a1.119 1.119 0 0 0 1.442-.1 1.064 1.064 0 0 0 .144-1.344L2 2.273ZM9.593 4.674l18.26 19.686a1.119 1.119 0 0 0 1.442-.1 1.064 1.064 0 0 0 .144-1.344L9.593 4.674ZM4.259 9.811 22.519 29.5a1.119 1.119 0 0 0 1.442-.1 1.064 1.064 0 0 0 .144-1.344L4.259 9.811ZM16.011 6.738l12.758 13.754a.782.782 0 0 0 1.007-.067.743.743 0 0 0 .1-.939L16.011 6.738ZM6.016 15.765l12.757 13.753a.782.782 0 0 0 1.007-.067.743.743 0 0 0 .1-.939L6.016 15.765ZM22.567 9.715l5.782 6.252a.4.4 0 0 0 .5-.031.335.335 0 0 0 .05-.44l-6.33-5.781ZM9.208 22.1l5.782 6.252a.4.4 0 0 0 .5-.031.335.335 0 0 0 .05-.44L9.208 22.1Z" style="fill:#df4f4f"/></svg>