<svg xmlns="http://www.w3.org/2000/svg" viewBox="0 0 32 32"><path d="M27.3 5H5.886L2 8.958V26h24.114L30 22.042V5ZM16.9 23.07l-1.828.852-1.572-2.591a3.968 3.968 0 0 1-1.082.106c-1.845 0-3.123-.5-3.85-1.49a8.03 8.03 0 0 1-1.082-4.7 8.351 8.351 0 0 1 1.1-4.773 4.379 4.379 0 0 1 3.833-1.561c1.828 0 3.087.515 3.833 1.544a8.351 8.351 0 0 1 1.1 4.773 10.809 10.809 0 0 1-.452 3.44 3.9 3.9 0 0 1-1.473 2Zm5.848-1.67a2.735 2.735 0 0 1-2.168-.692A4.192 4.192 0 0 1 20 18.1V14h-1v-2h1V9h2v3h2v2h-2v3.9a3.907 3.907 0 0 0 .168 1.437c.112.231.393.355.86.355l1.533-.053.093 1.544a12.519 12.519 0 0 1-1.906.217ZM12.416 10.614a2.4 2.4 0 0 0-2.289 1.1 7.657 7.657 0 0 0-.6 3.513 7.131 7.131 0 0 0 .6 3.442 2.44 2.44 0 0 0 2.306 1.031 2.417 2.417 0 0 0 2.289-1.011 7.343 7.343 0 0 0 .586-3.442 7.692 7.692 0 0 0-.6-3.531 2.4 2.4 0 0 0-2.292-1.102Z" style="fill:#ffa351"/></svg>