<svg xmlns="http://www.w3.org/2000/svg" viewBox="0 0 32 32"><ellipse cx="16.02" cy="19.92" fill="#d1dae1" rx="10.03" ry="9.486"/><ellipse cx="16.02" cy="19.95" fill="none" stroke="#505242" stroke-width=".686" rx="9.921" ry="9.667"/><path fill="#505242" d="m20.57 5.762.359.064.337.107.183.106.158.146.175.273.107.264.034.205.021.133-.017.204-.013.137-.055.158-.068.175-.086.154-.207.264-.195.189-.19.119-.23.1-.37.112-.313.035-8.487-.014-.55-.11-.415-.202-.266-.225-.149-.191-.172-.38-.074-.431.029-.274.051-.172.103-.205.057-.12.174-.223.141-.121.133-.098.152-.082.164-.043.371-.012-.043-.243-.082-.509-.286-1.608-.01-.19.018-.13.08-.137.094-.137.19-.16.266-.136.383-.144.328-.078 1.477-.227.78-.082.938-.027.868.015.925.032.82.085.645.094 1.422.274.25.105.324.305.063.156.031.117.012.125v.211L20.63 5.56z"/><rect width="8.57" height="2.931" x="11.72" y="8.5" fill="#525341" rx="0"/><path fill="#d1dae1" d="M12.1 8.686h7.804v3.003H12.1z"/><path fill="#2c541c" d="M24.15 17.6a8.389 8.256 0 0 1-3.237 8.989 8.389 8.256 0 0 1-9.69-.012 8.389 8.256 0 0 1-3.214-8.997"/><path fill="#447f24" d="M22.9 18.83a7 6.279 0 0 1-2.701 6.836 7 6.279 0 0 1-8.086-.01 7 6.279 0 0 1-2.682-6.841"/><path fill="#d49a49" d="M12.26 4.8q.22.031.433.078c2.045.408 4.734.437 6.765-.023l.268-.055a13 13 0 0 1-.241 1.098l-.042.164-.025.096a.5.5 0 0 1-.19.224c-.271.098-.6.129-.897.17l-.094.013c-.7.091-1.41.104-2.12.101h-.123a21 21 0 0 1-1.82-.062l-.1-.009a9 9 0 0 1-.986-.14l-.08-.016a.77.77 0 0 1-.403-.196 1 1 0 0 1-.085-.259l-.02-.076-.058-.24-.04-.159a6 6 0 0 1-.142-.71z"/><path fill="none" stroke="#d1dae1" stroke-width=".985" d="M20.92 6.318a5.125 1.329 0 0 1-1.978 1.447 5.125 1.329 0 0 1-5.92-.002 5.125 1.329 0 0 1-1.964-1.448"/><ellipse cx="17.87" cy="25.34" fill="#78a630" rx=".934" ry=".939"/><ellipse cx="20.66" cy="21.14" fill="#a5c639" rx=".929" ry="1.405"/><g fill="#29501b"><ellipse cx="14.13" cy="11.33" rx=".941" ry=".937"/><ellipse cx="15.53" cy="16.47" rx=".464" ry=".468"/><ellipse cx="12.73" cy="14.6" rx="1.396" ry="1.399"/></g><ellipse cx="14.13" cy="24.4" fill="#a5c639" rx=".935" ry=".933"/><ellipse cx="11.33" cy="21.6" fill="#85af32" rx=".935" ry=".932"/><ellipse cx="16.01" cy="3.406" fill="#d49a49" rx="3.727" ry=".464"/><path fill="#505242" d="M19.85 8.548a4.041.65 0 0 1-1.56.707 4.041.65 0 0 1-4.668 0 4.041.65 0 0 1-1.548-.709"/></svg>