<svg xmlns="http://www.w3.org/2000/svg" viewBox="0 0 32 32"><path d="M29.821 4.321 24.023 2l-12.53 12.212-7.66-5.827-1.654.837V22.8l1.644.827 7.65-5.827L24.023 30l5.8-2.321V4.321ZM4.65 19.192v-6.374l3.55 3.167ZM16 15.985l7.082-5.3v10.639l-7.092-5.339Z" style="fill:#68217a"/><path d="m15.995 15.985 7.082-5.299v10.638l-7.092-5.339h.01zM4.65 19.192v-6.374l3.546 3.167-3.546 3.207z" style="fill:#fff"/><path d="M15.553 32a7.185 7.185 0 0 1-5.541-2.244A8.131 8.131 0 0 1 8 24.05a8.587 8.587 0 0 1 2.222-6.086 7.631 7.631 0 0 1 5.809-2.415 9.876 9.876 0 0 1 3.571.583l.955.372v6.569l-2.3-1.456a3.636 3.636 0 0 0-2-.548 2.127 2.127 0 0 0-1.684.668 2.975 2.975 0 0 0-.663 2.1 2.9 2.9 0 0 0 .62 2.008 1.918 1.918 0 0 0 1.572.618 3.976 3.976 0 0 0 2.165-.607l2.293-1.427v6.292l-.815.419a9.177 9.177 0 0 1-4.192.86Z" style="fill:#efeef0"/><path d="M24.092 27.909h-4.758v-1.757h-1.756v-4.758l1.756.001v-1.757h4.758v1.758h1.758v4.756h-1.758v1.757z" style="fill:#efeef0"/><path d="M30.243 27.909h-4.758v-1.757h-1.757v-4.758l1.757.001v-1.757h4.758v1.758H32v4.756h-1.757v1.757z" style="fill:#efeef0"/><path d="M19.057 29.808a7.682 7.682 0 0 1-3.5.689 5.721 5.721 0 0 1-4.436-1.759A6.657 6.657 0 0 1 9.5 24.05a7.107 7.107 0 0 1 1.817-5.06 6.162 6.162 0 0 1 4.714-1.941 8.364 8.364 0 0 1 3.026.481v2.82a5.129 5.129 0 0 0-2.8-.78 3.61 3.61 0 0 0-2.787 1.152 4.428 4.428 0 0 0-1.06 3.12 4.349 4.349 0 0 0 1 3.007 3.428 3.428 0 0 0 2.693 1.12 5.489 5.489 0 0 0 2.958-.834ZM20.834 22.895v-1.758h1.758v1.758h1.758v1.757h-1.758v1.757h-1.758v-1.757h-1.756v-1.758l1.756.001zM26.985 22.895v-1.758h1.758v1.758H30.5v1.757h-1.757v1.757h-1.758v-1.757h-1.757v-1.758l1.757.001z" style="fill:#984c93"/></svg>