<svg xmlns="http://www.w3.org/2000/svg" viewBox="0 0 32 32"><path d="m20.42 21.157 2.211 2.211L30 16l-7.369-7.369-2.211 2.212L25.58 16Zm-8.84-10.314L9.369 8.631 2 16l7.369 7.369 2.211-2.211L6.42 16Zm5.831-3.166 1.6.437-4.42 16.209-1.6-.437Z" style="fill:#f1662a"/><path d="M20.332 18.462a3.354 3.354 0 0 1 .975-1.423 4.014 4.014 0 0 1 1.617-.8A9.118 9.118 0 0 1 25.138 16a5.472 5.472 0 0 1 3.681 1.039A3.5 3.5 0 0 1 30 19.808a4.47 4.47 0 0 1-.24 1.491 3.124 3.124 0 0 1-.838 1.239l-1.675 1.6a1.512 1.512 0 0 0-.424.789 5.307 5.307 0 0 0-.1 1.1H23v-.54a6.32 6.32 0 0 1 .207-1.778 2.886 2.886 0 0 1 .78-1.24l1.352-1.289a1.84 1.84 0 0 0 .563-.894 3.682 3.682 0 0 0 .1-.8 1.5 1.5 0 0 0-.252-.9.9.9 0 0 0-.779-.346 1.255 1.255 0 0 0-.483.086.724.724 0 0 0-.344.337 2.347 2.347 0 0 0-.217.721 7.614 7.614 0 0 0-.081 1.24H20a6.155 6.155 0 0 1 .332-2.162Zm6.457 8.5V30h-3.853v-3.038Z" style="fill:#fcba00"/></svg>