<svg xmlns="http://www.w3.org/2000/svg" viewBox="0 0 32 32"><path d="m18.053 12.267 4.76 7.467.373.56 1.12-.653-.373-.56-4.76-7.467-.373-.654-1.12.653.373.653Zm-5.227-.747-4.76 7.467-.373.56 1.12.653.373-.467 4.76-7.467.373-.56-1.119-.746-.373.56Z" style="fill:#a0b3c1"/><path d="M16 13.107a4.979 4.979 0 0 0 4.947-4.947A5.061 5.061 0 0 0 16 3.12a4.979 4.979 0 0 0-4.947 4.947A5.061 5.061 0 0 0 16 13.107Zm0-1.307a3.644 3.644 0 0 1-3.64-3.64 3.64 3.64 0 1 1 7.28 0A3.644 3.644 0 0 1 16 11.8ZM25.053 28.88a4.947 4.947 0 1 0-4.947-4.947 4.979 4.979 0 0 0 4.947 4.947Zm0-1.307a3.644 3.644 0 0 1-3.64-3.64 3.64 3.64 0 1 1 7.28 0 3.644 3.644 0 0 1-3.64 3.64ZM6.947 28.88a4.947 4.947 0 1 0 0-9.893 4.947 4.947 0 1 0 0 9.893Zm0-1.307a3.644 3.644 0 0 1-3.64-3.64 3.706 3.706 0 0 1 3.64-3.64 3.706 3.706 0 0 1 3.64 3.64 3.644 3.644 0 0 1-3.64 3.64Z" style="fill:#a0b3c1"/><circle cx="6.947" cy="23.933" r="1.68" style="fill:#5e9cff"/></svg>