<svg xmlns="http://www.w3.org/2000/svg" viewBox="0 0 32 32"><path d="M9.774 14.626a9.883 9.883 0 0 0 .447 2.942 5.613 5.613 0 0 0 .392 1.074 6 6 0 0 0 11.193-4.165 9.992 9.992 0 0 1-18.573 7.248 15.089 15.089 0 0 1-.615-1.66 13.989 13.989 0 0 1 26.172-9.744 10 10 0 0 0-19.016 4.305Z" style="fill:#2eb9db"/><path d="M30 16.023a13.995 13.995 0 0 1-26.767 5.7 9.992 9.992 0 0 0 18.572-7.248 5.492 5.492 0 0 0-.4-1.065 6 6 0 0 0-11.192 4.164 9.992 9.992 0 0 1 18.572-7.241 15.087 15.087 0 0 1 .62 1.658A13.93 13.93 0 0 1 30 16.023Z" style="fill:#388bba"/></svg>