<svg xmlns="http://www.w3.org/2000/svg" viewBox="0 0 32 32"><title>file_type_ng_component_html</title><defs><linearGradient id="b"><stop offset="0" stop-color="#de3641"/><stop offset="1" stop-color="#b13138"/></linearGradient><linearGradient id="c"><stop offset="0" stop-color="#de3641"/><stop offset="1" stop-color="#de3641" stop-opacity="0"/></linearGradient><clipPath id="a"><path fill="#fff" d="M0 0h223v236H0z"/></clipPath></defs><g clip-path="url(#a)" transform="translate(2.76 1.986)scale(.11923)"><path fill="url(#b)" d="m222.08 39.192-8.019 125.92L137.39-.008zm-53.105 162.82-57.933 33.056-57.934-33.056 11.783-28.556h92.301zm-57.933-139.34 30.357 73.803H80.684zm-103.1 102.44L.005 39.192 84.695 0z"/><path fill="url(#c)" d="m222.08 39.192-8.019 125.92L137.39-.008zm-53.105 162.82-57.933 33.056-57.934-33.056 11.783-28.556h92.301zm-57.933-139.34 30.357 73.803H80.684zm-103.1 102.44L.005 39.192 84.695 0z"/></g><path d="m18.69 28.21-1.11-12.47H29.8l-1.11 12.47-5.01 1.39z" style="fill:#e44f26"/><path d="m23.69 28.54 4.05-1.12.95-10.66h-5z" style="fill:#f1662a"/><path d="M23.69 21.39h-2.02l-.14-1.57h2.16v-1.53h-3.84l.04.41.38 4.22h3.42zM23.69 25.36h-.01l-1.7-.46-.11-1.22h-1.53l.21 2.4 3.13.87h.01z" style="fill:#ebebeb"/><path d="M23.69 21.39v1.53h1.88l-.18 1.98-1.7.46v1.59l3.13-.87.03-.26.35-4.02.04-.41h-3.55M23.69 18.29v1.53h3.69l.03-.35.07-.77.04-.41z" style="fill:#fff"/></svg>