<svg xmlns="http://www.w3.org/2000/svg" viewBox="0 0 32 32"><path d="M16.597 2 8.252 6.378l-.371 2.704.014 18.365L16.419 30" style="fill:#008f90;opacity:.75;isolation:isolate"/><path d="M7.895 11.896v3.033l5.435 2.746 3.157 2.031.043-7.817-8.635.007z" style="fill:#00393a"/><path d="m16.53 11.889-.043 7.817 6.904-2.663.755-5.161-7.616.007z" style="fill:#008f90"/><path d="m8.225 6.378-.371 2.691 8.702-.605L16.597 2 8.225 6.378z" style="fill:#004748"/><path d="M22.375 3.222 16.597 2l-.041 6.464 7.549-1.276-1.73-3.966z" style="fill:#009b9d"/><path d="m8.252 6.378-.371 2.704.014 18.365 8.647-15.551-8.29-5.518z" style="fill:#002526;opacity:.7000000000000001;isolation:isolate"/><path d="m7.895 27.447 4.735 1.414L16.419 30l.123-18.104-8.647 15.551z" style="fill:#006c6e;opacity:.5;isolation:isolate"/></svg>