<svg xmlns="http://www.w3.org/2000/svg" viewBox="0 0 32 32"><title>file_type_ng_directive_ts</title><defs><linearGradient id="b"><stop offset="0" stop-color="#1dbf34"/><stop offset="1" stop-color="#168f27"/></linearGradient><linearGradient id="c"><stop offset="0" stop-color="#1dbf34"/><stop offset="1" stop-color="#1dbf34" stop-opacity="0"/></linearGradient><clipPath id="a"><path fill="#fff" d="M0 0h223v236H0z"/></clipPath></defs><g clip-path="url(#a)" transform="translate(2.76 1.986)scale(.11923)"><path fill="url(#b)" d="m222.08 39.192-8.019 125.92L137.39-.008zm-53.105 162.82-57.933 33.056-57.934-33.056 11.783-28.556h92.301zm-57.933-139.34 30.357 73.803H80.684zm-103.1 102.44L.005 39.192 84.695 0z"/><path fill="url(#c)" d="m222.08 39.192-8.019 125.92L137.39-.008zm-53.105 162.82-57.933 33.056-57.934-33.056 11.783-28.556h92.301zm-57.933-139.34 30.357 73.803H80.684zm-103.1 102.44L.005 39.192 84.695 0z"/></g><path d="M27.41 19.65a2.8 2.8 0 0 1 1.41.81 3.7 3.7 0 0 1 .54.72s-1 .69-1.57 1.06a.5.5 0 0 1-.2-.22 1.28 1.28 0 0 0-1.06-.64.92.92 0 0 0-1.12.91.83.83 0 0 0 .1.42 2.23 2.23 0 0 0 1.31.88c1.62.7 2.31 1.16 2.74 1.81a3.28 3.28 0 0 1 .26 2.76A3 3 0 0 1 27.31 30a7 7 0 0 1-1.72 0 4.15 4.15 0 0 1-2.3-1.2 4 4 0 0 1-.59-.87l.21-.13.84-.48.65-.38.14.2a3 3 0 0 0 .86.82 2.1 2.1 0 0 0 2.2-.11 1 1 0 0 0 .13-1.25 3.7 3.7 0 0 0-1.55-.9A5.6 5.6 0 0 1 24 24.32a3 3 0 0 1-.62-1.13 4.5 4.5 0 0 1 0-1.44 2.76 2.76 0 0 1 2.32-2.15 5.7 5.7 0 0 1 1.71.05m-5.31.94v.93h-2.94v8.36h-2.08v-8.36h-2.94v-.91a9 9 0 0 1 0-.93h8v.92Z" style="fill:#007acc"/></svg>