<svg xmlns="http://www.w3.org/2000/svg" viewBox="0 0 32 32"><title>folder_type_histoire_opened</title><path fill="#a3aeff" d="M27.4 5.5h-9.2l-2.1 4.2H4.3v4H.5l3.8 12.8h25.2v-21Zm-7.2 2.1h7.1v2.1h-8.1Zm5.5 6.1H6.6v-1.9h20.8v7.626Z"/><path fill="#34d399" d="m15.301 12.965 12.044-.964a.327.327 0 0 1 .35.3l1.265 15.773a.32.32 0 0 1-.3.35l-12.044.964a.32.32 0 0 1-.35-.3L15 13.315a.32.32 0 0 1 .3-.35"/><path fill="#b4fae2" stroke="#b4fae2" stroke-linejoin="round" stroke-width=".3357445" d="m26.167 24.724-1.565-7.265-3.336 2.521zm-3.472-3.358-4.9-4.743 1.564 7.272z"/></svg>