<svg xmlns="http://www.w3.org/2000/svg" viewBox="0 0 32 32"><title>folder_type_next_opened</title><path fill="#786fe7" d="M27.4 5.5h-9.2l-2.1 4.2H4.3v4H.5l3.8 12.8h25.2v-21Zm-7.2 2.1h7.1v2.1h-8.1Zm5.5 6.1H6.6v-1.9h20.8v7.626Z"/><path fill="#40d0fd" d="m21.612 21.647 2.442-2.38h6.067l-5.374 5.375z"/><path fill="#41d0fd" d="M9.106 20.424 27.093 2.287h-8.349L4.907 16.125z" style="isolation:isolate" transform="translate(10.435 8.338)scale(.72659)"/><path fill="#1fbcfd" d="m21.65 27.72 3.097-3.078-3.135-2.995-3.057 3.024z"/><path fill="#095a9d" d="M24.747 24.642 30.045 30h-6.1l-2.295-2.28z"/><path fill="#0e5199" d="M23.563 25.818 21.65 27.72l2.885-.96z"/></svg>